<?xml version="1.0" encoding="UTF-8" standalone="no"?>
<!-- Generator: Adobe Illustrator 18.1.1, SVG Export Plug-In . SVG Version: 6.00 Build 0)  -->

<svg
   version="1.1"
   id="Layer_1"
   x="0px"
   y="0px"
   viewBox="0 0 117.3 117.3"
   enable-background="new 0 0 117.3 117.3"
   xml:space="preserve"
   sodipodi:docname="logo.svg"
   inkscape:version="1.2.1 (9c6d41e410, 2022-07-14)"
   inkscape:export-filename="black.png"
   inkscape:export-xdpi="419.03"
   inkscape:export-ydpi="419.03"
   xmlns:inkscape="http://www.inkscape.org/namespaces/inkscape"
   xmlns:sodipodi="http://sodipodi.sourceforge.net/DTD/sodipodi-0.dtd"
   xmlns:xlink="http://www.w3.org/1999/xlink"
   xmlns="http://www.w3.org/2000/svg"
   xmlns:svg="http://www.w3.org/2000/svg"><defs
   id="defs38"><linearGradient
     inkscape:collect="always"
     id="linearGradient3738"><stop
       style="stop-color:#ff2a2a;stop-opacity:1;"
       offset="0.23154585"
       id="stop3734" /><stop
       style="stop-color:#000000;stop-opacity:1;"
       offset="0.73399645"
       id="stop3736" /></linearGradient><linearGradient
     inkscape:collect="always"
     id="linearGradient10461"><stop
       style="stop-color:#ff2a2a;stop-opacity:1;"
       offset="0.03134556"
       id="stop10457" /><stop
       style="stop-color:#000000;stop-opacity:1;"
       offset="0.91525412"
       id="stop10459" /></linearGradient><linearGradient
     inkscape:collect="always"
     id="linearGradient9761"><stop
       style="stop-color:#0066ff;stop-opacity:1;"
       offset="0.26598388"
       id="stop9759" /><stop
       style="stop-color:#ff2a2a;stop-opacity:1;"
       offset="1"
       id="stop9757" /></linearGradient><linearGradient
     inkscape:collect="always"
     id="linearGradient9538"><stop
       style="stop-color:#ff2a2a;stop-opacity:1;"
       offset="0.28078824"
       id="stop9534" /><stop
       style="stop-color:#000000;stop-opacity:1;"
       offset="0.66847938"
       id="stop9536" /></linearGradient><inkscape:perspective
     sodipodi:type="inkscape:persp3d"
     inkscape:vp_x="0 : 58.65 : 1"
     inkscape:vp_y="0 : 1000 : 0"
     inkscape:vp_z="117.3 : 58.65 : 1"
     inkscape:persp3d-origin="58.65 : 39.1 : 1"
     id="perspective8016" /><linearGradient
     inkscape:collect="always"
     xlink:href="#linearGradient9538"
     id="linearGradient9540"
     x1="65.583221"
     y1="66.707802"
     x2="99.516777"
     y2="37.092197"
     gradientUnits="userSpaceOnUse" /><linearGradient
     inkscape:collect="always"
     xlink:href="#linearGradient9761"
     id="linearGradient9763"
     x1="24.605112"
     y1="68.360825"
     x2="59.162098"
     y2="65.169907"
     gradientUnits="userSpaceOnUse" /><linearGradient
     inkscape:collect="always"
     xlink:href="#linearGradient10461"
     id="linearGradient10463"
     x1="72.400002"
     y1="72"
     x2="81.203232"
     y2="84.161507"
     gradientUnits="userSpaceOnUse" /><linearGradient
     inkscape:collect="always"
     xlink:href="#linearGradient3738"
     id="linearGradient417"
     gradientUnits="userSpaceOnUse"
     x1="66.103043"
     y1="56.208927"
     x2="62.636547"
     y2="23.030977" /></defs><sodipodi:namedview
   id="namedview36"
   pagecolor="#ffffff"
   bordercolor="#999999"
   borderopacity="1"
   inkscape:showpageshadow="0"
   inkscape:pageopacity="0"
   inkscape:pagecheckerboard="true"
   inkscape:deskcolor="#d1d1d1"
   showgrid="false"
   showborder="true"
   inkscape:zoom="8.9769819"
   inkscape:cx="43.945727"
   inkscape:cy="58.594303"
   inkscape:window-width="3440"
   inkscape:window-height="1373"
   inkscape:window-x="0"
   inkscape:window-y="0"
   inkscape:window-maximized="1"
   inkscape:current-layer="layer2" />

<circle
   fill="url(#SVGID_1_)"
   cx="58.700001"
   cy="58.700001"
   r="58.700001"
   id="circle7"
   style="display:none;fill:#0a7fbe;fill-opacity:1" /><g
   inkscape:groupmode="layer"
   id="layer3"
   inkscape:label="circles"><circle
     fill="none"
     stroke="#ffffff"
     stroke-width="6"
     stroke-miterlimit="10"
     cx="58.700001"
     cy="58.5"
     id="circle9"
     style="display:inline;fill:none;fill-opacity:1;stroke:#000000"
     r="43.700001" /></g><g
   inkscape:groupmode="layer"
   id="layer2"
   inkscape:label="lines"><line
     fill="none"
     stroke="#ffffff"
     stroke-width="6"
     stroke-miterlimit="10"
     x1="16.6"
     y1="69.099998"
     x2="67.5"
     y2="64.400002"
     id="line27"
     style="display:inline;stroke:url(#linearGradient9763)" /><line
     fill="none"
     stroke="#FFFFFF"
     stroke-width="6"
     stroke-miterlimit="10"
     x1="86.5"
     y1="91.8"
     x2="67.5"
     y2="64.4"
     id="line19"
     style="stroke:url(#linearGradient10463)" /><line
     fill="none"
     stroke="#ffffff"
     stroke-width="6"
     stroke-miterlimit="10"
     x1="97.599998"
     y1="39.400002"
     x2="67.5"
     y2="64.400002"
     id="line13"
     style="display:inline;stroke:url(#linearGradient9540);stroke-opacity:1;fill:none;fill-opacity:1" /><line
     fill="none"
     stroke="#ffffff"
     stroke-width="5.61217"
     stroke-miterlimit="10"
     x1="62.63728"
     y1="22.718664"
     x2="66.014786"
     y2="56.392853"
     id="line13-5"
     style="display:inline;fill:none;fill-opacity:1;stroke:url(#linearGradient417);stroke-opacity:1" /></g><g
   inkscape:groupmode="layer"
   id="layer1"
   inkscape:label="dots"><path
     fill="#ffffff"
     d="m 21.2,61.4 c -4.3,-2.5 -9.8,-1.1 -12.3,3.1 -2.5,4.3 -1.1,9.8 3.1,12.3 4.3,2.5 9.8,1.1 12.3,-3.1 2.5,-4.2 1.1,-9.7 -3.1,-12.3 z"
     id="path25"
     style="display:inline;fill:#0066ff" /><path
     fill="#ffffff"
     d="m 77.6,91 c -0.4,4.9 3.2,9.3 8.2,9.8 5,0.4 9.3,-3.2 9.8,-8.2 C 96,87.7 92.4,83.3 87.4,82.8 82.4,82.4 78,86 77.6,91 Z"
     id="path17"
     style="display:inline;fill:#000000;fill-opacity:1" /><path
     fill="#FFFFFF"
     d="M94.7,47.8c4.7,1.6,9.8-0.9,11.4-5.6c1.6-4.7-0.9-9.8-5.6-11.4c-4.7-1.6-9.8,0.9-11.4,5.6     C87.5,41.1,90,46.2,94.7,47.8z"
     id="path11"
     style="fill:#000000;fill-opacity:1" /><path
     fill="#FFFFFF"
     d="m 59.447868,23.769679 c 4.7,1.6 9.8,-0.9 11.4,-5.6 1.6,-4.7 -0.9,-9.8000004 -5.6,-11.4000006 -4.7,-1.6000002 -9.8,0.9 -11.4,5.6000006 -1.6,4.7 0.9,9.8 5.6,11.4 z"
     id="path11-3"
     style="fill:#000000;fill-opacity:1" /><path
     fill="#FFFFFF"
     d="M60,69.3c2.7,4.2,8.3,5.4,12.4,2.7c4.2-2.7,5.4-8.3,2.7-12.4c-2.7-4.2-8.3-5.4-12.4-2.7    C58.5,59.5,57.3,65.1,60,69.3z"
     id="path23"
     style="fill:#ff2a2a" /></g></svg>
